<svg class="icon icon-apple-pay" xmlns="http://www.w3.org/2000/svg" width="28" height="12" viewBox="0 0 28 12" fill="none">
  <g>
    <path d="M5.11736 1.71331C4.78928 2.10154 4.26424 2.40786 3.73926 2.36406C3.67364 1.83913 3.93064 1.28129 4.23143 0.936749C4.55951 0.537586 5.13376 0.253195 5.5986 0.231323C5.65328 0.778178 5.43997 1.3141 5.11736 1.71331ZM5.59318 2.46801C4.83302 2.42426 4.18228 2.89998 3.82133 2.89998C3.45498 2.89998 2.9026 2.48988 2.30107 2.50082C1.51909 2.51175 0.791737 2.95466 0.392519 3.66014C-0.42779 5.07105 0.179267 7.16009 0.972181 8.30848C1.36046 8.87721 1.8253 9.50062 2.43777 9.47874C3.01748 9.45687 3.24714 9.10145 3.94715 9.10145C4.65258 9.10145 4.85495 9.47874 5.46742 9.46781C6.10176 9.45687 6.50098 8.89914 6.88926 8.33035C7.33217 7.68508 7.51267 7.05615 7.5236 7.02334C7.51267 7.0124 6.29867 6.54762 6.28773 5.1476C6.27679 3.97734 7.24474 3.41955 7.28848 3.38674C6.74157 2.57737 5.88851 2.48988 5.59318 2.46801ZM9.98453 0.882069V9.40771H11.3079V6.49294H13.1399C14.8133 6.49294 15.989 5.34456 15.989 3.68207C15.989 2.01963 14.8351 0.882124 13.1836 0.882124L9.98453 0.882069ZM11.3079 1.9977H12.8336C13.9821 1.9977 14.6383 2.61017 14.6383 3.68748C14.6383 4.76478 13.9821 5.38278 12.8282 5.38278H11.3079V1.9977ZM18.4061 9.47328C19.2374 9.47328 20.0084 9.05224 20.3584 8.38504H20.3858V9.40766H21.6107V5.164C21.6107 3.93359 20.6264 3.14063 19.1115 3.14063C17.7061 3.14063 16.6671 3.94453 16.6288 5.04917H17.821C17.9194 4.52419 18.4061 4.17965 19.0733 4.17965C19.8826 4.17965 20.3365 4.557 20.3365 5.25154V5.72179L18.685 5.82022C17.1483 5.91317 16.3171 6.5421 16.3171 7.63586C16.3171 8.74051 17.1757 9.47328 18.4061 9.47328ZM18.7615 8.46159C18.0562 8.46159 17.6077 8.12257 17.6077 7.603C17.6077 7.06714 18.0397 6.75541 18.8655 6.7062L20.3365 6.61324V7.09442C20.3365 7.89286 19.6585 8.46159 18.7616 8.46159M23.2459 11.7264C24.5365 11.7264 25.1435 11.2342 25.674 9.74126L27.9981 3.22265H26.6528L25.0942 8.25922H25.0669L23.5084 3.22265H22.1248L24.3669 9.42953L24.2466 9.80688C24.0443 10.4467 23.7161 10.6928 23.131 10.6928C23.0271 10.6928 22.8248 10.6819 22.7427 10.6709V11.6936C22.8193 11.7154 23.1474 11.7264 23.2458 11.7264" fill="#3D1A14"/>
  </g>
</svg>