<svg
  class="icon icon-user"
  xmlns="http://www.w3.org/2000/svg"
  width="14"
  height="14"
  viewBox="0 0 14 14"
  fill="none"
>
  <g clip-path="url(#clip0_4403_647)">
    <path d="M0.875 13.5604C0.875 11.68 2.43688 10.1549 3.9375 10.1549H4.61737C4.79513 10.1557 4.97131 10.1215 5.13585 10.0542C5.30038 9.98689 5.45004 9.88786 5.5763 9.76273C5.70257 9.63761 5.80298 9.48883 5.87175 9.32491C5.94052 9.16099 5.9763 8.98513 5.9771 8.80737V8.58687C5.97452 8.38302 5.92775 8.18215 5.83997 7.99815C5.7522 7.81415 5.62556 7.65139 5.46875 7.52111C5.08382 7.16395 4.77888 6.7293 4.57408 6.24579C4.36927 5.76227 4.26922 5.24085 4.2805 4.71586C4.2805 2.84161 5.5055 1.31036 7 1.31036C8.4945 1.31036 9.7195 2.84161 9.7195 4.71586C9.73078 5.24085 9.6307 5.76227 9.42589 6.24579C9.22108 6.7293 8.91619 7.16395 8.53125 7.52111C8.37125 7.64937 8.24159 7.81143 8.15158 7.99569C8.06157 8.17994 8.01342 8.38182 8.0106 8.58687V8.79511C8.0098 8.97288 8.04403 9.14906 8.11132 9.31359C8.1786 9.47813 8.27763 9.62781 8.40276 9.75407C8.52789 9.88034 8.67664 9.98072 8.84057 10.0495C9.00449 10.1183 9.18035 10.1541 9.35811 10.1549H10.0625C11.5631 10.1549 13.125 11.68 13.125 13.5604" stroke="#443D36"/>
  </g>
  <defs>
    <clipPath id="clip0_4403_647">
      <rect width="14" height="14" fill="white"/>
    </clipPath>
  </defs>
</svg>