<svg class="icon icon-google-pay" xmlns="http://www.w3.org/2000/svg" width="28" height="12" viewBox="0 0 28 12" fill="none">
  <g>
    <path d="M19.8471 3.43306C20.6168 3.43306 21.2116 3.64299 21.6664 4.06285C22.1212 4.48265 22.3311 5.04244 22.3311 5.74217V9.10081H21.3515V8.3312H21.3165C20.8967 8.96099 20.3019 9.27585 19.6022 9.27585C19.0074 9.27585 18.4826 9.10087 18.0628 8.75106C17.6779 8.4012 17.433 7.9114 17.433 7.3866C17.433 6.82679 17.6429 6.37196 18.0628 6.02209C18.4826 5.67223 19.0774 5.53229 19.7771 5.53229C20.4068 5.53229 20.8967 5.63729 21.2815 5.88216V5.63729C21.2815 5.31072 21.1596 4.9842 20.9158 4.77143L20.8616 4.72763C20.5818 4.4827 20.2319 4.34277 19.8471 4.34277C19.2523 4.34277 18.7975 4.58768 18.4826 5.07749L17.573 4.51759C18.1327 3.78287 18.8675 3.43306 19.8471 3.43306ZM14.914 1.05396C15.5418 1.05396 16.1384 1.27241 16.6154 1.6798L16.6983 1.75363C17.1881 2.17349 17.433 2.80327 17.433 3.468C17.433 4.13273 17.1881 4.72752 16.6983 5.18232C16.2085 5.63712 15.6138 5.88205 14.914 5.88205L13.2347 5.84705V9.10081H12.1851V1.05396H14.914ZM19.987 6.3719C19.5672 6.3719 19.2173 6.47686 18.9375 6.68677C18.6575 6.86168 18.5176 7.10657 18.5176 7.42144C18.5176 7.70136 18.6576 7.94623 18.8675 8.08622C19.1124 8.26115 19.3923 8.36609 19.6722 8.36609C20.064 8.36609 20.4558 8.21369 20.7623 7.93737L20.8267 7.87629C21.1766 7.56143 21.3515 7.17656 21.3515 6.75671C21.0366 6.51184 20.5818 6.37185 19.987 6.37185M14.9841 2.0335H13.2348V4.83257H14.9841C15.3689 4.83257 15.7537 4.69263 15.9987 4.41276C16.5584 3.88797 16.5584 3.01331 16.0337 2.48846L15.9987 2.45346C15.7187 2.17359 15.3689 1.99866 14.984 2.03366M27.9989 3.60799L24.5353 11.5499H23.4857L24.7801 8.786L22.506 3.64299H23.6256L25.2699 7.59642H25.3049L26.9143 3.64299H27.9989V3.60799Z" fill="#5F6368"/>
    <path d="M9.07129 5.14736C9.07129 4.83249 9.03629 4.51762 9.0013 4.20276H4.62811V5.98707H7.1121C7.00716 6.54681 6.6923 7.07161 6.2025 7.38653V8.54105H7.70689C8.58155 7.73639 9.07134 6.54681 9.07134 5.14741" fill="#4285F4"/>
    <path d="M4.62806 9.66067C5.88752 9.66067 6.93711 9.24082 7.70684 8.54109L6.20245 7.38656C5.78259 7.66643 5.25779 7.84136 4.62806 7.84136C3.43848 7.84136 2.38889 7.0367 2.03903 5.91711H0.499695V7.10664C1.30436 8.68102 2.87874 9.66067 4.62806 9.66067Z" fill="#34A853"/>
    <path d="M2.03902 5.91708C1.82914 5.35728 1.82914 4.72755 2.03902 4.13276V2.94324H0.499687C-0.165097 4.23775 -0.165097 5.77714 0.499687 7.1066L2.03902 5.91708Z" fill="#FBBC04"/>
    <path d="M4.62806 2.24355C5.29279 2.24355 5.92252 2.48848 6.41237 2.94328L7.74183 1.61382C6.90212 0.844099 5.78259 0.389299 4.663 0.424241C2.91369 0.424241 1.30436 1.40389 0.534637 2.97828L2.07403 4.1678C2.38889 3.04822 3.43848 2.24355 4.62806 2.24355Z" fill="#EA4335"/>
  </g>
</svg>