<svg class="icon icon-diagnostic" xmlns="http://www.w3.org/2000/svg" width="32" height="33" viewBox="0 0 32 33" fill="none">
  <path d="M3.3335 10.9342C3.47216 8.13423 3.88683 6.38756 5.1295 5.14756C6.3695 3.9049 8.11616 3.49023 10.9162 3.35156M28.6668 10.9342C28.5282 8.13423 28.1135 6.38756 26.8708 5.14756C25.6308 3.9049 23.8842 3.49023 21.0842 3.35156M21.0842 28.6849C23.8842 28.5462 25.6308 28.1316 26.8708 26.8889C28.1135 25.6489 28.5282 23.9022 28.6668 21.1022M10.9162 28.6849C8.11616 28.5462 6.3695 28.1316 5.1295 26.8889C3.88683 25.6489 3.47216 23.9022 3.3335 21.1022M23.3335 22.6849L23.0642 21.5529C22.9546 21.0935 22.7251 20.6715 22.399 20.33C22.0729 19.9884 21.6619 19.7396 21.2082 19.6089L18.0002 18.6836V16.7276C19.1948 15.9209 20.0002 14.4129 20.0002 12.6849C20.0002 10.1076 18.2082 8.01823 16.0002 8.01823C13.7908 8.01823 12.0002 10.1076 12.0002 12.6849C12.0002 14.4129 12.8042 15.9209 14.0002 16.7276V18.6836L10.8122 19.6169C10.372 19.7458 9.97245 19.986 9.65223 20.3144C9.33201 20.6428 9.10191 21.0483 8.98416 21.4916L8.66683 22.6849" stroke="#443D36" stroke-width="1.5" stroke-linecap="round" stroke-linejoin="round"/>
</svg>