<svg class="icon icon-visa" xmlns="http://www.w3.org/2000/svg" width="28" height="10" viewBox="0 0 28 10" fill="none">
  <g clip-path="url(#clip0_5086_5824)">
    <path d="M14.4809 3.35151C14.465 4.61106 15.6034 5.31389 16.461 5.73181C17.3421 6.16055 17.6381 6.43552 17.6346 6.81898C17.628 7.40577 16.9318 7.66477 16.2802 7.67483C15.1435 7.69244 14.4826 7.36793 13.9571 7.1225L13.5476 9.03861C14.0748 9.28153 15.051 9.49339 16.0632 9.50269C18.4394 9.50269 19.9939 8.32976 20.0023 6.51121C20.0116 4.2032 16.8099 4.07546 16.8318 3.04384C16.8394 2.73103 17.1378 2.39723 17.7919 2.31235C18.1156 2.26948 19.0093 2.23667 20.0226 2.70325L20.4202 0.84937C19.8753 0.650967 19.175 0.460984 18.3031 0.460984C16.0666 0.460984 14.4936 1.64988 14.4809 3.35151ZM24.2415 0.620669C23.8077 0.620669 23.442 0.87376 23.2788 1.26215L19.8846 9.36652H22.259L22.7315 8.0607H25.633L25.9071 9.36652H27.9998L26.1736 0.620669H24.2415ZM24.5737 2.98325L25.2589 6.26741H23.3823L24.5737 2.98325ZM11.6021 0.620779L9.7305 9.36641H11.9931L13.8638 0.62056L11.6021 0.620779ZM8.25494 0.620779L5.89991 6.57344L4.94726 1.51196C4.83548 0.946931 4.39405 0.620669 3.90384 0.620669H0.0541043L0.000183105 0.874635C0.790517 1.04613 1.68848 1.32274 2.2325 1.6187C2.56543 1.7995 2.66037 1.95754 2.76974 2.38716L4.57408 9.36652H6.9651L10.6309 0.620669L8.25494 0.620779Z" fill="url(#paint0_linear_5086_5824)"/>
  </g>
  <defs>
    <linearGradient id="paint0_linear_5086_5824" x1="1287.26" y1="27.6403" x2="1313.43" y2="-900.956" gradientUnits="userSpaceOnUse">
      <stop stop-color="#222357"/>
      <stop offset="1" stop-color="#254AA5"/>
    </linearGradient>
  </defs>
</svg>