<svg
  class="icon icon-wind"
  xmlns="http://www.w3.org/2000/svg"
  width="14"
  height="14"
  viewBox="0 0 14 14"
  fill="none"
>
  <path d="M12.25 10.5C12.25 10.5 11.5556 10.2261 11.0833 10.0929C8.0965 9.25017 5.9035 11.7499 2.91667 10.9072C2.44441 10.7739 1.75 10.5 1.75 10.5M12.25 7.00002C12.25 7.00002 11.5556 6.72614 11.0833 6.59289C8.0965 5.75017 5.9035 8.24987 2.91667 7.40715C2.44441 7.27391 1.75 7.00002 1.75 7.00002M12.25 3.50002C12.25 3.50002 11.5556 3.22614 11.0833 3.09289C8.0965 2.25017 5.9035 4.74987 2.91667 3.90715C2.44441 3.77391 1.75 3.50002 1.75 3.50002" stroke="#443D36" stroke-linecap="round" stroke-linejoin="round"/>
</svg>