<svg width="20" height="20" viewBox="0 0 20 20" fill="none" xmlns="http://www.w3.org/2000/svg">
<g id="icon">
<path id="Vector" d="M7.38079 10.4217C5.30829 8.87167 3.82995 7.16667 3.02245 6.20833C2.77245 5.91167 2.69079 5.69417 2.64162 5.31167C2.47329 4.00167 2.38912 3.34667 2.77329 2.92333C3.15745 2.5 3.83662 2.5 5.19495 2.5H14.805C16.1633 2.5 16.8425 2.5 17.2266 2.9225C17.6108 3.34583 17.5266 4.00083 17.3583 5.31083C17.3083 5.69333 17.2266 5.91083 16.9775 6.2075C16.1691 7.1675 14.6883 8.87583 12.6108 10.4283C12.5147 10.5031 12.4353 10.5971 12.3776 10.7042C12.3199 10.8114 12.2853 10.9295 12.2758 11.0508C12.07 13.3267 11.88 14.5733 11.7616 15.2033C11.5708 16.2217 10.1283 16.8342 9.35495 17.38C8.89495 17.705 8.33662 17.3183 8.27745 16.815C8.05618 14.8971 7.86893 12.9754 7.71579 11.0508C7.70723 10.9283 7.67297 10.809 7.61526 10.7006C7.55754 10.5922 7.47765 10.4972 7.38079 10.4217Z" stroke="#443D36" stroke-width="1.5" stroke-linecap="round" stroke-linejoin="round"/>
</g>
</svg>
