<svg class="icon icon-youtube" xmlns="http://www.w3.org/2000/svg" width="32" height="33" viewBox="0 0 32 33" fill="none">
  <path d="M16.3254 6.25574C17.0374 6.25974 18.8187 6.27707 20.7121 6.35307L21.3841 6.3824C23.2894 6.47174 25.1934 6.6264 26.1387 6.88907C27.3987 7.24374 28.3881 8.27574 28.7227 9.58507C29.2561 11.6651 29.3227 15.7211 29.3307 16.7037L29.3321 16.9064V17.1384C29.3228 18.1211 29.2561 22.1784 28.7227 24.2571C28.3841 25.5704 27.3934 26.6037 26.1387 26.9531C25.1934 27.2157 23.2894 27.3704 21.3841 27.4597L20.7121 27.4904C18.8187 27.5651 17.0374 27.5837 16.3254 27.5864L16.0121 27.5877H15.6721C14.1654 27.5784 7.86408 27.5104 5.85875 26.9531C4.60008 26.5984 3.60941 25.5664 3.27475 24.2571C2.74141 22.1771 2.67475 18.1211 2.66675 17.1384V16.7037C2.67475 15.7211 2.74141 11.6637 3.27475 9.58507C3.61341 8.27174 4.60408 7.2384 5.86008 6.8904C7.86408 6.33174 14.1667 6.26374 15.6734 6.25574H16.3254ZM13.3321 12.2557V21.5891L21.3321 16.9224L13.3321 12.2557Z" fill="#443D36"/>
</svg>