<svg class="icon icon-pinterest" xmlns="http://www.w3.org/2000/svg" width="32" height="33" viewBox="0 0 32 33" fill="none">
  <path d="M17.8294 3.71433C14.6402 3.27733 11.4006 4.00848 8.70824 5.77287C6.0159 7.53726 4.05251 10.2158 3.18032 13.3144C2.30813 16.413 2.586 19.7224 3.96265 22.6321C5.3393 25.5419 7.72185 27.8556 10.6707 29.1463C10.5914 28.1226 10.6642 27.0927 10.8867 26.0903C11.1334 24.9717 12.6147 18.8063 12.6147 18.8063C12.3181 18.1456 12.1706 17.4278 12.1827 16.7037C12.1827 14.7237 13.3254 13.2463 14.7467 13.2463C15.002 13.2426 15.2552 13.2939 15.4889 13.3968C15.7227 13.4996 15.9315 13.6516 16.1013 13.8424C16.2711 14.0331 16.3978 14.2582 16.4728 14.5023C16.5478 14.7464 16.5694 15.0038 16.536 15.257C16.536 16.457 15.7654 18.273 15.3627 19.977C15.2831 20.2895 15.2781 20.6163 15.348 20.9311C15.4178 21.246 15.5607 21.54 15.765 21.7894C15.9694 22.0389 16.2295 22.2369 16.5243 22.3675C16.8192 22.498 17.1406 22.5574 17.4627 22.541C19.992 22.541 21.6894 19.2997 21.6894 15.473C21.6894 12.5383 19.7467 10.3437 16.1654 10.3437C15.3087 10.3104 14.4541 10.4515 13.6536 10.7585C12.8531 11.0656 12.1233 11.5321 11.5086 12.1297C10.8939 12.7274 10.407 13.4437 10.0775 14.2352C9.74807 15.0268 9.5829 15.877 9.59204 16.7343C9.55386 17.6854 9.86071 18.6183 10.456 19.361C10.5673 19.444 10.6485 19.561 10.6875 19.6942C10.7264 19.8275 10.721 19.9698 10.672 20.0997C10.6107 20.345 10.456 20.9303 10.3947 21.1463C10.3818 21.219 10.352 21.2876 10.3077 21.3467C10.2634 21.4058 10.2059 21.4536 10.1398 21.4865C10.0736 21.5193 10.0007 21.5361 9.9269 21.5356C9.85308 21.5351 9.7804 21.5173 9.7147 21.4837C7.86937 20.745 7.00004 18.7143 7.00004 16.3957C7.00004 12.5997 10.1787 8.05566 16.5387 8.05566C21.6 8.05566 24.964 11.7583 24.964 15.7183C24.964 20.9303 22.0627 24.849 17.7734 24.849C17.1323 24.8696 16.4963 24.7282 15.9244 24.4378C15.3525 24.1474 14.863 23.7174 14.5014 23.1877C14.5014 23.1877 13.7294 26.2757 13.5787 26.8597C13.2689 27.8688 12.811 28.8263 12.22 29.701C13.4507 30.0743 14.7294 30.261 16.0147 30.2557C17.7659 30.2567 19.5002 29.9124 21.1182 29.2425C22.7362 28.5726 24.2063 27.5902 25.4442 26.3515C26.6821 25.1128 27.6637 23.6422 28.3326 22.0238C29.0016 20.4053 29.3448 18.6709 29.3427 16.9197C29.3419 13.6993 28.1756 10.588 26.0593 8.16063C23.943 5.73328 21.0196 4.15391 17.8294 3.71433Z" fill="#443D36"/>
</svg>