<svg class="icon icon-instagram" xmlns="http://www.w3.org/2000/svg" width="32" height="33" viewBox="0 0 32 33" fill="none">
  <path d="M17.3708 3.58899C18.8708 3.59299 19.6321 3.60099 20.2894 3.61966L20.5481 3.62899C20.8468 3.63966 21.1414 3.65299 21.4974 3.66899C22.9161 3.73566 23.8841 3.95966 24.7334 4.28899C25.6134 4.62766 26.3548 5.08632 27.0961 5.82632C27.7744 6.49263 28.299 7.29895 28.6334 8.18899C28.9628 9.03832 29.1868 10.0063 29.2534 11.4263C29.2694 11.781 29.2828 12.0757 29.2934 12.3757L29.3014 12.6343C29.3214 13.2903 29.3294 14.0517 29.3321 15.5517L29.3334 16.5463V18.293C29.3367 19.2655 29.3265 20.2381 29.3028 21.2103L29.2948 21.469C29.2841 21.769 29.2708 22.0637 29.2548 22.4183C29.1881 23.8383 28.9614 24.805 28.6334 25.6557C28.299 26.5457 27.7744 27.352 27.0961 28.0183C26.4298 28.6966 25.6235 29.2212 24.7334 29.5557C23.8841 29.885 22.9161 30.109 21.4974 30.1757L20.5481 30.2157L20.2894 30.2237C19.6321 30.2423 18.8708 30.2517 17.3708 30.2543L16.3761 30.2557H14.6308C13.6578 30.2591 12.6848 30.2489 11.7121 30.225L11.4534 30.217C11.1369 30.205 10.8205 30.1912 10.5041 30.1757C9.08544 30.109 8.11744 29.885 7.26677 29.5557C6.37721 29.2211 5.57136 28.6964 4.90544 28.0183C4.2267 27.3521 3.70159 26.5458 3.36677 25.6557C3.03744 24.8063 2.81344 23.8383 2.74677 22.4183L2.70677 21.469L2.70011 21.2103C2.67553 20.2381 2.66442 19.2655 2.66677 18.293V15.5517C2.66308 14.5791 2.67286 13.6066 2.69611 12.6343L2.70544 12.3757C2.71611 12.0757 2.72944 11.781 2.74544 11.4263C2.81211 10.0063 3.03611 9.03966 3.36544 8.18899C3.70103 7.29859 4.22707 6.49224 4.90677 5.82632C5.57231 5.14839 6.37769 4.62375 7.26677 4.28899C8.11744 3.95966 9.08411 3.73566 10.5041 3.66899C10.8588 3.65299 11.1548 3.63966 11.4534 3.62899L11.7121 3.62099C12.6844 3.5973 13.6569 3.58708 14.6294 3.59032L17.3708 3.58899ZM16.0001 10.2557C14.232 10.2557 12.5363 10.958 11.2861 12.2083C10.0358 13.4585 9.33344 15.1542 9.33344 16.9223C9.33344 18.6904 10.0358 20.3861 11.2861 21.6364C12.5363 22.8866 14.232 23.589 16.0001 23.589C17.7682 23.589 19.4639 22.8866 20.7142 21.6364C21.9644 20.3861 22.6668 18.6904 22.6668 16.9223C22.6668 15.1542 21.9644 13.4585 20.7142 12.2083C19.4639 10.958 17.7682 10.2557 16.0001 10.2557ZM16.0001 12.9223C16.5254 12.9222 17.0456 13.0256 17.5309 13.2266C18.0162 13.4275 18.4572 13.7221 18.8287 14.0934C19.2002 14.4648 19.4949 14.9057 19.696 15.391C19.8971 15.8762 20.0007 16.3964 20.0008 16.9217C20.0009 17.4469 19.8975 17.9671 19.6965 18.4524C19.4956 18.9378 19.201 19.3788 18.8297 19.7503C18.4583 20.1218 18.0174 20.4165 17.5321 20.6176C17.0469 20.8187 16.5267 20.9222 16.0014 20.9223C14.9406 20.9223 13.9232 20.5009 13.173 19.7508C12.4229 19.0006 12.0014 17.9832 12.0014 16.9223C12.0014 15.8615 12.4229 14.844 13.173 14.0939C13.9232 13.3438 14.9406 12.9223 16.0014 12.9223M23.0014 8.25566C22.5594 8.25566 22.1355 8.43125 21.8229 8.74381C21.5104 9.05637 21.3348 9.4803 21.3348 9.92232C21.3348 10.3644 21.5104 10.7883 21.8229 11.1008C22.1355 11.4134 22.5594 11.589 23.0014 11.589C23.4435 11.589 23.8674 11.4134 24.18 11.1008C24.4925 10.7883 24.6681 10.3644 24.6681 9.92232C24.6681 9.4803 24.4925 9.05637 24.18 8.74381C23.8674 8.43125 23.4435 8.25566 23.0014 8.25566Z" fill="#443D36"/>
</svg>