<svg width="32" height="33" viewBox="0 0 32 33" fill="none" xmlns="http://www.w3.org/2000/svg">
<g id="hugeicons:mail-open-02">
<g id="Group">
<path id="Vector" d="M15.9952 23.5043C19.8606 23.5043 22.9941 20.3708 22.9941 16.5055C22.9941 12.6401 19.8606 9.50659 15.9952 9.50659C12.1298 9.50659 8.99634 12.6401 8.99634 16.5055C8.99634 20.3708 12.1298 23.5043 15.9952 23.5043Z" stroke="#443D36" stroke-width="1.5"/>
<path id="Vector_2" d="M22.9941 16.5053V20.126C22.9941 21.9924 24.5059 23.5041 26.3723 23.5041C27.5201 23.5041 28.5466 22.8043 28.9852 21.7404C29.8717 19.5475 30.217 17.0838 29.8624 14.5083C29.0132 8.34925 24.0113 3.40338 17.843 2.61951C8.66045 1.45303 0.943023 9.17045 2.11883 18.3436C2.90271 24.512 7.84858 29.5138 14.0076 30.363C17.3017 30.8203 20.4092 30.1297 23.0035 28.6273" stroke="#443D36" stroke-width="1.5"/>
</g>
</g>
</svg>
