<svg class="icon icon-maestro" xmlns="http://www.w3.org/2000/svg" width="22" height="16" viewBox="0 0 22 16" fill="none">
  <g>
    <path d="M13.7828 11.362H8.21722V1.35986H13.7828V11.362Z" fill="#6C6BBD"/>
    <path d="M8.56977 6.36117C8.56977 4.33214 9.51972 2.52478 10.9991 1.36008C9.91731 0.508382 8.55184 0 7.06811 0C3.55534 0 0.707825 2.84792 0.707825 6.36117C0.707825 9.87433 3.55534 12.7222 7.06811 12.7222C8.55192 12.7222 9.91731 12.2139 10.9991 11.3622C9.51972 10.1975 8.56977 8.39011 8.56977 6.36117Z" fill="#D32011"/>
    <path d="M21.2915 6.36117C21.2915 9.87433 18.4439 12.7222 14.9312 12.7222C13.4474 12.7222 12.082 12.2139 10.9998 11.3622C12.4796 10.1975 13.4295 8.39011 13.4295 6.36117C13.4295 4.33214 12.4796 2.52478 10.9998 1.36008C12.082 0.508382 13.4474 0 14.9312 0C18.4439 0 21.2915 2.84792 21.2915 6.36117Z" fill="#0099DF"/>
    <path d="M15.666 14.1882C15.74 14.1882 15.8463 14.2024 15.9276 14.2343L15.8144 14.5805C15.7367 14.5486 15.6591 14.538 15.5847 14.538C15.3445 14.538 15.2243 14.6933 15.2243 14.9724V15.9195H14.8567V14.2307H15.2207V14.4357C15.3162 14.2873 15.4541 14.1882 15.666 14.1882ZM14.3079 14.5663H13.7073V15.3294C13.7073 15.4989 13.7672 15.6121 13.9513 15.6121C14.0467 15.6121 14.1667 15.5802 14.276 15.5167L14.3819 15.831C14.2655 15.9122 14.0818 15.962 13.9229 15.962C13.4881 15.962 13.3365 15.7286 13.3365 15.3364V14.5663H12.9936V14.2307H13.3365V13.7183H13.7073V14.2307H14.3079V14.5663ZM9.60489 14.9267C9.64413 14.6828 9.79223 14.5167 10.0539 14.5167C10.2904 14.5167 10.4424 14.665 10.4813 14.9267H9.60489ZM10.8631 15.0751C10.8594 14.5485 10.5343 14.1882 10.0607 14.1882C9.56614 14.1882 9.21992 14.5486 9.21992 15.075C9.21992 15.6117 9.58029 15.9616 10.0858 15.9616C10.3402 15.9616 10.5731 15.898 10.7781 15.725L10.5978 15.4529C10.4567 15.5661 10.2762 15.6296 10.1068 15.6296C9.87022 15.6296 9.65466 15.52 9.60167 15.2163H10.8558C10.8594 15.1702 10.8631 15.1244 10.8631 15.0751ZM12.4775 14.6618C12.3751 14.5979 12.1668 14.5166 11.9513 14.5166C11.7499 14.5166 11.6297 14.591 11.6297 14.7148C11.6297 14.8276 11.7568 14.8595 11.9157 14.8806L12.0888 14.9052C12.4564 14.9586 12.6788 15.114 12.6788 15.4108C12.6788 15.7323 12.3961 15.962 11.9088 15.962C11.633 15.962 11.3786 15.8912 11.1772 15.7428L11.3503 15.4565C11.4741 15.5519 11.6581 15.6332 11.9124 15.6332C12.1632 15.6332 12.2975 15.5592 12.2975 15.4282C12.2975 15.3331 12.202 15.2797 12.0006 15.2519L11.8275 15.2272C11.4494 15.1738 11.2444 15.0043 11.2444 14.7289C11.2444 14.3932 11.5201 14.1882 11.9476 14.1882C12.2162 14.1882 12.46 14.2485 12.6364 14.3649L12.4775 14.6618ZM17.0089 14.5372C16.9334 14.5372 16.8634 14.5506 16.7983 14.5769C16.7353 14.6024 16.6781 14.6404 16.63 14.6885C16.5817 14.7377 16.5437 14.7962 16.5184 14.8604C16.4914 14.9272 16.4779 15.0006 16.478 15.0808C16.478 15.1612 16.4913 15.2344 16.5184 15.3011C16.5455 15.368 16.5827 15.4253 16.63 15.473C16.6781 15.5212 16.7353 15.5591 16.7983 15.5846C16.8634 15.6113 16.9334 15.6243 17.0089 15.6243C17.0845 15.6243 17.155 15.6114 17.2196 15.5846C17.2829 15.5592 17.3404 15.5212 17.3887 15.473C17.4368 15.4254 17.4741 15.3679 17.5016 15.3011C17.5287 15.2344 17.542 15.1612 17.542 15.0808C17.5421 15.0006 17.5286 14.9272 17.5016 14.8604C17.4741 14.7936 17.4368 14.7362 17.3887 14.6885C17.3404 14.6403 17.283 14.6023 17.2197 14.5769C17.1527 14.5501 17.0812 14.5366 17.009 14.5372M17.009 14.1883C17.1401 14.1882 17.2614 14.211 17.373 14.2566C17.4847 14.302 17.5812 14.3645 17.6626 14.4443C17.7446 14.5247 17.8096 14.6206 17.8539 14.7265C17.9 14.8354 17.923 14.9535 17.923 15.0808C17.923 15.2082 17.9 15.3263 17.8539 15.4351C17.8096 15.5412 17.7446 15.6373 17.6625 15.7178C17.5813 15.7975 17.4846 15.8598 17.3731 15.9054C17.2614 15.9507 17.14 15.9734 17.009 15.9734C16.878 15.9734 16.7566 15.9507 16.6451 15.9054C16.5335 15.8598 16.4376 15.7975 16.3567 15.7178C16.2752 15.6371 16.2104 15.541 16.1662 15.4351C16.1201 15.3263 16.097 15.2082 16.097 15.0808C16.097 14.9535 16.1201 14.8354 16.1662 14.7266C16.2104 14.6208 16.2752 14.5249 16.3567 14.4443C16.4395 14.3633 16.5375 14.2995 16.6451 14.2566C16.7566 14.211 16.878 14.1882 17.009 14.1883ZM7.45832 15.075C7.45832 14.7783 7.65289 14.5344 7.97072 14.5344C8.27448 14.5344 8.4795 14.7677 8.4795 15.0751C8.4795 15.3825 8.27448 15.6154 7.97072 15.6154C7.65289 15.6154 7.45832 15.3719 7.45832 15.075ZM8.82571 15.0751V14.2307H8.45844V14.4358C8.34161 14.2837 8.16529 14.1883 7.92505 14.1883C7.45148 14.1883 7.08059 14.5591 7.08059 15.0751C7.08059 15.5908 7.45148 15.962 7.92505 15.962C8.16529 15.962 8.34153 15.8666 8.45844 15.7146V15.9196H8.82571V15.0751ZM6.75536 15.9196V14.8596C6.75536 14.4605 6.50097 14.1919 6.09132 14.1883C5.87576 14.1847 5.65289 14.2518 5.49763 14.4888C5.38113 14.3015 5.19717 14.1883 4.93916 14.1883C4.75914 14.1883 4.58242 14.2413 4.44453 14.439V14.2307H4.07733V15.9196H4.44815V14.9834C4.44815 14.6902 4.61072 14.5345 4.86141 14.5345C5.10535 14.5345 5.22909 14.6934 5.22909 14.9798V15.9196H5.59999V14.9833C5.59999 14.6901 5.76979 14.5344 6.01325 14.5344C6.26443 14.5344 6.38455 14.6933 6.38455 14.9797V15.9196H6.75536Z" fill="#110F0D"/>
  </g>
</svg>