<svg class="icon icon-bag" xmlns="http://www.w3.org/2000/svg" width="20" height="20" viewBox="0 0 20 20" fill="none">
  <path d="M2.81113 14.1833L1.8078 8.20001C1.65613 7.29501 1.5803 6.84334 1.82363 6.54667C2.06613 6.25001 2.5128 6.25001 3.4053 6.25001H15.762C16.6545 6.25001 17.1011 6.25001 17.3436 6.54667C17.587 6.84334 17.5103 7.29501 17.3595 8.20001L16.3561 14.1833C16.0236 16.1667 15.8578 17.1575 15.1786 17.7458C14.5003 18.3333 13.522 18.3333 11.5653 18.3333H7.60196C5.6453 18.3333 4.66696 18.3333 3.98863 17.745C3.30946 17.1575 3.14363 16.1658 2.81113 14.1825M14.167 6.25001C14.167 5.03443 13.6841 3.86864 12.8245 3.0091C11.965 2.14956 10.7992 1.66667 9.58363 1.66667C8.36806 1.66667 7.20227 2.14956 6.34273 3.0091C5.48318 3.86864 5.0003 5.03443 5.0003 6.25001" stroke="white" stroke-width="1.5" stroke-linecap="round" stroke-linejoin="round"/>
</svg>