<svg xmlns="http://www.w3.org/2000/svg" class="icon icon-cart" width="20" height="20" viewBox="0 0 20 20" fill="none">
  <path d="M2.81101 14.1834L1.80768 8.20002C1.65601 7.29502 1.58018 6.84335 1.82351 6.54669C2.06601 6.25002 2.51268 6.25002 3.40518 6.25002H15.7618C16.6543 6.25002 17.101 6.25002 17.3435 6.54669C17.5868 6.84335 17.5102 7.29502 17.3593 8.20002L16.356 14.1834C16.0235 16.1667 15.8577 17.1575 15.1785 17.7459C14.5002 18.3334 13.5218 18.3334 11.5652 18.3334H7.60184C5.64518 18.3334 4.66684 18.3334 3.98851 17.745C3.30934 17.1575 3.14351 16.1659 2.81101 14.1825M14.1668 6.25002C14.1668 5.03444 13.684 3.86866 12.8244 3.00911C11.9649 2.14957 10.7991 1.66669 9.58351 1.66669C8.36793 1.66669 7.20214 2.14957 6.3426 3.00911C5.48306 3.86866 5.00018 5.03444 5.00018 6.25002" stroke="#443D36" stroke-width="1.5" stroke-linecap="round" stroke-linejoin="round"/>
</svg>