 <svg width="14" height="14" viewBox="0 0 14 15" fill="none" xmlns="http://www.w3.org/2000/svg">
            <path d="M11.6667 0.835693V2.83569C11.6667 4.07337 11.175 5.26036 10.2998 6.13552C9.42465 7.01069 8.23767 7.50236 6.99999 7.50236M6.99999 7.50236C5.76231 7.50236 4.57533 7.01069 3.70016 6.13552C2.82499 5.26036 2.33332 4.07337 2.33332 2.83569V0.835693M6.99999 7.50236C8.23767 7.50236 9.42465 7.99403 10.2998 8.8692C11.175 9.74437 11.6667 10.9314 11.6667 12.169V14.169M6.99999 7.50236C5.76231 7.50236 4.57533 7.99403 3.70016 8.8692C2.82499 9.74437 2.33332 10.9314 2.33332 12.169V14.169M1.66666 0.835693H12.3333M12.3333 14.169H1.66666" stroke="#443D36" stroke-width="1.5" stroke-linecap="round" stroke-linejoin="round"/>
</svg>