<svg class="icon icon-paypal" xmlns="http://www.w3.org/2000/svg" width="14" height="16" viewBox="0 0 14 16" fill="none">
  <g>
    <path d="M11.7241 1.24539C10.9859 0.403955 9.65145 0.0432129 7.94427 0.0432129H2.98957C2.82065 0.0431868 2.65726 0.103436 2.5288 0.213123C2.40034 0.32281 2.31524 0.474735 2.2888 0.641571L0.225752 13.7259C0.184745 13.9839 0.384533 14.2176 0.646043 14.2176H3.7049L4.47312 9.34494L4.44928 9.49752C4.504 9.15309 4.79857 8.89905 5.14739 8.89905H6.60096C9.45648 8.89905 11.6924 7.73921 12.3455 4.38403C12.3649 4.2848 12.3817 4.18822 12.3962 4.09386C12.3138 4.05021 12.3138 4.05021 12.3962 4.09386C12.5907 2.85376 12.3949 2.00962 11.7241 1.24539Z" fill="#27346A"/>
    <path d="M5.64355 3.64713C5.72716 3.60725 5.81863 3.58661 5.91126 3.58674H9.79566C10.2556 3.58674 10.6847 3.61667 11.0767 3.67977C11.1864 3.69727 11.2956 3.71816 11.404 3.74239C11.5576 3.7763 11.7095 3.8178 11.8591 3.86674C12.0518 3.93111 12.2313 4.00607 12.3963 4.09386C12.5907 2.85328 12.3949 2.00962 11.7241 1.24539C10.9855 0.403955 9.65145 0.0432129 7.94427 0.0432129H2.98914C2.64027 0.0432129 2.34347 0.2972 2.2888 0.641571L0.225752 13.7254C0.184745 13.9839 0.384533 14.2172 0.645619 14.2172H3.7049L5.29871 4.11018C5.31439 4.01084 5.35397 3.9168 5.41404 3.83614C5.47411 3.75548 5.55287 3.69062 5.64355 3.64713Z" fill="#27346A"/>
    <path d="M12.3456 4.38404C11.6924 7.73875 9.45657 8.89906 6.601 8.89906H5.14701C4.79819 8.89906 4.50357 9.1531 4.44937 9.49753L3.49366 15.5561C3.45795 15.7819 3.63257 15.9865 3.86103 15.9865H6.43957C6.58728 15.9864 6.73012 15.9337 6.84242 15.8378C6.95472 15.7418 7.02909 15.6089 7.05218 15.463L7.07729 15.3316L7.56328 12.2516L7.59459 12.0814C7.61767 11.9355 7.69204 11.8026 7.80433 11.7067C7.91661 11.6107 8.05945 11.558 8.20714 11.5579H8.59305C11.0909 11.5579 13.0468 10.5431 13.6183 7.60826C13.8569 6.38177 13.7334 5.35777 13.1024 4.63851C12.9109 4.42065 12.6732 4.24073 12.3963 4.09387C12.3813 4.18871 12.365 4.28481 12.3456 4.38404Z" fill="#2790C3"/>
    <path d="M11.7127 3.82132C11.6109 3.79158 11.5081 3.76526 11.4045 3.74238C11.296 3.71853 11.1869 3.69779 11.0772 3.68018C10.6847 3.61666 10.256 3.58667 9.79561 3.58667H5.91169C5.81901 3.58652 5.72749 3.60733 5.64399 3.64755C5.55318 3.69087 5.47432 3.75569 5.41422 3.83638C5.35412 3.91706 5.3146 4.01119 5.29908 4.11059L4.47355 9.34492L4.44971 9.49751C4.50401 9.15308 4.79858 8.89904 5.14746 8.89904H6.60144C9.45696 8.89904 11.6928 7.7392 12.346 4.38402C12.3654 4.28479 12.3817 4.18863 12.3967 4.09385C12.2314 4.00661 12.0523 3.93104 11.8595 3.86715C11.8109 3.85102 11.7619 3.83574 11.7128 3.82132" fill="#1F264F"/>
  </g>
</svg>