<svg width="14" height="14" viewBox="0 0 16 17" fill="none" xmlns="http://www.w3.org/2000/svg">
<path d="M12 1.83569V3.16903M4.00002 1.83569V3.16903M2.00002 5.83569H14M1.66669 8.66436C1.66669 5.75969 1.66669 4.30703 2.50135 3.40436C3.33602 2.50236 4.68002 2.50236 7.36669 2.50236H8.63335C11.32 2.50236 12.664 2.50236 13.4987 3.40503C14.3334 4.30703 14.3334 5.75969 14.3334 8.66503V9.00703C14.3334 11.9117 14.3334 13.3644 13.4987 14.267C12.664 15.169 11.32 15.169 8.63335 15.169H7.36669C4.68002 15.169 3.33602 15.169 2.50135 14.2664C1.66669 13.3644 1.66669 11.9117 1.66669 9.00636V8.66436Z" stroke="#443D36" stroke-width="1.5" stroke-linecap="round" stroke-linejoin="round"/>
</svg>
