<svg xmlns="http://www.w3.org/2000/svg" width="20" height="20" viewBox="0 0 20 20" fill="none">
  <path d="M10.0002 17.5C10.2335 17.5 10.4493 17.3942 10.8818 17.1817L14.3585 15.4783C15.8977 14.7242 16.6668 14.3467 16.6668 13.75V6.25M10.0002 17.5C9.76683 17.5 9.551 17.3942 9.1185 17.1817L5.64183 15.4783C4.10266 14.7242 3.3335 14.3467 3.3335 13.75V6.25M10.0002 17.5V10" stroke="#443D36" stroke-linecap="round" stroke-linejoin="round"/>
  <path d="M9.1185 2.81833C9.55183 2.60583 9.76766 2.5 10.0002 2.5C10.2335 2.5 10.4493 2.60583 10.8818 2.81833L14.3585 4.52167C15.8977 5.27583 16.6668 5.65333 16.6668 6.25C16.6668 6.84667 15.8977 7.22417 14.3585 7.97833L10.8818 9.68167C10.4485 9.89417 10.2327 10 10.0002 10C9.76683 10 9.551 9.89417 9.1185 9.68167L5.64183 7.97833C4.10266 7.22417 3.3335 6.84667 3.3335 6.25C3.3335 5.65333 4.10266 5.27583 5.64183 4.52167L9.1185 2.81833Z" stroke="#443D36" stroke-linecap="round" stroke-linejoin="round"/>
</svg>