<svg xmlns="http://www.w3.org/2000/svg" width="21" height="20" viewBox="0 0 21 20" fill="none">
  <path d="M13 1.66669L13.4492 3.66002C13.6362 4.48809 14.0541 5.2462 14.6544 5.84648C15.2547 6.44677 16.0128 6.86465 16.8408 7.05169L18.8333 7.50002L16.84 7.94919C16.0119 8.13623 15.2538 8.55411 14.6535 9.15439C14.0533 9.75467 13.6354 10.5128 13.4483 11.3409L13 13.3334L12.5508 11.34C12.3638 10.512 11.9459 9.75384 11.3456 9.15356C10.7453 8.55327 9.98724 8.13539 9.15917 7.94835L7.16667 7.50002L9.16 7.05085C9.98807 6.86381 10.7462 6.44594 11.3465 5.84565C11.9467 5.24537 12.3646 4.48726 12.5517 3.65919L13 1.66669ZM6.33333 10L6.65417 11.4234C6.78778 12.0148 7.08626 12.5563 7.51501 12.985C7.94376 13.4138 8.48523 13.7122 9.07667 13.8459L10.5 14.1667L9.07667 14.4875C8.48523 14.6211 7.94376 14.9196 7.51501 15.3484C7.08626 15.7771 6.78778 16.3186 6.65417 16.91L6.33333 18.3334L6.0125 16.91C5.87889 16.3186 5.58041 15.7771 5.15166 15.3484C4.72291 14.9196 4.18144 14.6211 3.59 14.4875L2.16667 14.1667L3.59 13.8459C4.18144 13.7122 4.72291 13.4138 5.15166 12.985C5.58041 12.5563 5.87889 12.0148 6.0125 11.4234L6.33333 10Z" stroke="white" stroke-width="1.5" stroke-linecap="round" stroke-linejoin="round"/>
</svg>