<svg class="icon icon-mastercard" xmlns="http://www.w3.org/2000/svg" width="22" height="16" viewBox="0 0 22 16" fill="none">
  <g>
    <path d="M4.45048 15.9204V14.8615C4.45048 14.4554 4.20333 14.1908 3.77969 14.1908C3.56791 14.1908 3.33844 14.2613 3.17957 14.4908C3.05607 14.2966 2.87959 14.1908 2.61482 14.1908C2.43826 14.1908 2.26186 14.2437 2.12059 14.4378V14.2261H1.74994V15.9204H2.12059V14.985C2.12059 14.685 2.27947 14.5437 2.52662 14.5437C2.77362 14.5437 2.89728 14.7026 2.89728 14.985V15.9204H3.26793V14.985C3.26793 14.685 3.44433 14.5437 3.6738 14.5437C3.92095 14.5437 4.04445 14.7026 4.04445 14.985V15.9204H4.45048ZM9.93961 14.2261H9.33957V13.7142H8.96891V14.2261H8.63356V14.5613H8.96883V15.338C8.96883 15.7264 9.12771 15.9557 9.55135 15.9557C9.71022 15.9557 9.88662 15.9028 10.0103 15.8322L9.90431 15.5145C9.79842 15.5851 9.67492 15.6028 9.58664 15.6028C9.41016 15.6028 9.33957 15.4969 9.33957 15.3203V14.5613H9.93961V14.2261ZM13.0814 14.1907C12.8696 14.1907 12.7284 14.2966 12.6402 14.4378V14.2261H12.2695V15.9204H12.6402V14.9674C12.6402 14.685 12.7636 14.5261 12.9931 14.5261C13.0637 14.5261 13.152 14.5438 13.2226 14.5614L13.3285 14.2084C13.2579 14.1908 13.152 14.1908 13.0814 14.1908M8.3335 14.3673C8.15693 14.2437 7.90986 14.1908 7.64509 14.1908C7.22154 14.1908 6.93917 14.4026 6.93917 14.738C6.93917 15.0204 7.15094 15.1792 7.5216 15.2322L7.69808 15.2499C7.89225 15.2851 7.99814 15.3381 7.99814 15.4264C7.99814 15.5499 7.85695 15.6382 7.6098 15.6382C7.36264 15.6382 7.16855 15.5499 7.04497 15.4617L6.86849 15.744C7.06266 15.8852 7.32743 15.9558 7.59211 15.9558C8.08634 15.9558 8.36879 15.7264 8.36879 15.4087C8.36879 15.1086 8.13933 14.9498 7.78628 14.8968L7.6098 14.8792C7.45092 14.8615 7.32743 14.8263 7.32743 14.7204C7.32743 14.5968 7.45092 14.5262 7.64509 14.5262C7.85695 14.5262 8.06873 14.6144 8.17462 14.6674L8.3335 14.3673ZM18.1823 14.1908C17.9705 14.1908 17.8293 14.2967 17.741 14.4379V14.2261H17.3704V15.9205H17.741V14.9674C17.741 14.6851 17.8646 14.5262 18.094 14.5262C18.1647 14.5262 18.2529 14.5439 18.3235 14.5615L18.4294 14.2085C18.3588 14.1908 18.2529 14.1908 18.1823 14.1908ZM13.452 15.0733C13.452 15.5852 13.805 15.9558 14.3522 15.9558C14.5993 15.9558 14.7758 15.9029 14.9523 15.7617L14.7758 15.4617C14.6346 15.5676 14.4934 15.6205 14.3345 15.6205C14.0345 15.6205 13.8227 15.4087 13.8227 15.0733C13.8227 14.7557 14.0345 14.5438 14.3345 14.5262C14.4934 14.5262 14.6346 14.5791 14.7758 14.6851L14.9523 14.385C14.7758 14.2437 14.5993 14.1908 14.3522 14.1908C13.805 14.1908 13.452 14.5615 13.452 15.0733ZM16.8762 15.0733V14.2261H16.5056V14.4379C16.382 14.2791 16.2055 14.1908 15.976 14.1908C15.4995 14.1908 15.1288 14.5615 15.1288 15.0733C15.1288 15.5852 15.4995 15.9558 15.976 15.9558C16.2231 15.9558 16.3997 15.8676 16.5056 15.7087V15.9205H16.8762V15.0733ZM15.5171 15.0733C15.5171 14.7733 15.7113 14.5262 16.0289 14.5262C16.329 14.5262 16.5409 14.7557 16.5409 15.0733C16.5409 15.3734 16.329 15.6205 16.0289 15.6205C15.7113 15.6028 15.5171 15.3734 15.5171 15.0733ZM11.0869 14.1908C10.5927 14.1908 10.2397 14.5438 10.2397 15.0733C10.2397 15.6029 10.5926 15.9558 11.1046 15.9558C11.3516 15.9558 11.5988 15.8852 11.793 15.7264L11.6164 15.4617C11.4752 15.5676 11.2987 15.6382 11.1222 15.6382C10.8928 15.6382 10.6633 15.5323 10.6103 15.2321H11.8635V15.091C11.8812 14.5438 11.5636 14.1908 11.0869 14.1908ZM11.0869 14.5085C11.3163 14.5085 11.4752 14.6498 11.5104 14.9145H10.6279C10.6632 14.6851 10.8221 14.5085 11.0869 14.5085ZM20.2826 15.0733V13.5554H19.9119V14.4379C19.7884 14.2791 19.6119 14.1908 19.3824 14.1908C18.9059 14.1908 18.5352 14.5615 18.5352 15.0733C18.5352 15.5852 18.9059 15.9558 19.3824 15.9558C19.6296 15.9558 19.8061 15.8676 19.9119 15.7087V15.9205H20.2826V15.0733ZM18.9236 15.0733C18.9236 14.7733 19.1177 14.5262 19.4354 14.5262C19.7355 14.5262 19.9472 14.7557 19.9472 15.0733C19.9472 15.3734 19.7355 15.6205 19.4354 15.6205C19.1177 15.6028 18.9236 15.3734 18.9236 15.0733ZM6.53305 15.0733V14.2261H6.1624V14.4379C6.03882 14.2791 5.86234 14.1908 5.63287 14.1908C5.15633 14.1908 4.78568 14.5615 4.78568 15.0733C4.78568 15.5852 5.15633 15.9558 5.63287 15.9558C5.88003 15.9558 6.05651 15.8676 6.1624 15.7087V15.9205H6.53305V15.0733ZM5.15633 15.0733C5.15633 14.7733 5.3505 14.5262 5.66817 14.5262C5.96823 14.5262 6.18009 14.7557 6.18009 15.0733C6.18009 15.3734 5.96823 15.6205 5.66817 15.6205C5.3505 15.6028 5.15633 15.3734 5.15633 15.0733Z" fill="#3D1A14"/>
    <path d="M8.2099 1.35901H13.7697V11.349H8.2099V1.35901Z" fill="#FF5F00"/>
    <path d="M8.56295 6.35409C8.56295 4.32434 9.51603 2.52398 10.981 1.35904C9.90438 0.511839 8.54534 0 7.06273 0C3.55021 0 0.708557 2.84165 0.708557 6.35409C0.708557 9.86653 3.55021 12.7082 7.06265 12.7082C8.54526 12.7082 9.9043 12.1963 10.981 11.3491C9.51603 10.2018 8.56295 8.38384 8.56295 6.35409Z" fill="#EB001B"/>
    <path d="M21.2711 6.35409C21.2711 9.86645 18.4294 12.7082 14.917 12.7082C13.4344 12.7082 12.0753 12.1963 10.9987 11.3491C12.4813 10.1842 13.4167 8.38384 13.4167 6.35409C13.4167 4.32434 12.4636 2.52398 10.9987 1.35904C12.0752 0.511839 13.4344 0 14.917 0C18.4294 0 21.2711 2.85934 21.2711 6.35409Z" fill="#F79E1B"/>
  </g>
</svg>