<svg xmlns="http://www.w3.org/2000/svg" width="20" height="20" viewBox="0 0 20 20" fill="none">
  <path d="M14.1667 16.6667C15.0871 16.6667 15.8333 15.9205 15.8333 15C15.8333 14.0796 15.0871 13.3334 14.1667 13.3334C13.2462 13.3334 12.5 14.0796 12.5 15C12.5 15.9205 13.2462 16.6667 14.1667 16.6667Z" stroke="#443D36" stroke-width="1.5" stroke-linecap="round" stroke-linejoin="round"/>
  <path d="M5.83329 16.6667C6.75377 16.6667 7.49996 15.9205 7.49996 15C7.49996 14.0796 6.75377 13.3334 5.83329 13.3334C4.91282 13.3334 4.16663 14.0796 4.16663 15C4.16663 15.9205 4.91282 16.6667 5.83329 16.6667Z" stroke="#443D36" stroke-width="1.5" stroke-linecap="round" stroke-linejoin="round"/>
  <path d="M4.16663 14.9767C3.25246 14.9317 2.68329 14.7959 2.27663 14.39C1.86996 13.9842 1.73496 13.4142 1.68996 12.5M7.49996 15H12.5M15.8333 14.9767C16.7475 14.9317 17.3166 14.7959 17.7233 14.39C18.3333 13.7792 18.3333 12.7975 18.3333 10.8334V9.16671H14.4166C13.7958 9.16671 13.4858 9.16671 13.235 9.08504C12.9848 9.00376 12.7575 8.86444 12.5715 8.67847C12.3856 8.49251 12.2462 8.26517 12.165 8.01504C12.0833 7.76421 12.0833 7.45421 12.0833 6.83337C12.0833 5.90254 12.0833 5.43754 11.9608 5.06087C11.8389 4.68569 11.6299 4.34468 11.3509 4.06572C11.072 3.78677 10.731 3.57779 10.3558 3.45587C9.97913 3.33337 9.51413 3.33337 8.58329 3.33337H1.66663M1.66663 6.66671H6.66663M1.66663 9.16671H4.99996" stroke="#443D36" stroke-width="1.5" stroke-linecap="round" stroke-linejoin="round"/>
  <path d="M12.0833 5H13.6008C14.8141 5 15.4199 5 15.9133 5.295C16.4074 5.58917 16.6949 6.12333 17.2699 7.19167L18.3333 9.16667" stroke="#443D36" stroke-width="1.5" stroke-linecap="round" stroke-linejoin="round"/>
</svg>